# xmcd CD database file generated by OrangeCD 5.2
#
# Track frame offsets:
#	150
#	31472
#	51187
#	78594
#	106252
#	133342
#	157570
#	168427
#	194642
#	223230
#	243337
#
# Disc length: 3524 seconds
#
# Revision: 3
# Processed by: cddbd v1.5.1PL0 Copyright (c) Steve Scherf et al.
# Submitted via: OrangeCD 5.2
#
DISCID=980dc20b
DTITLE=Joe Louis Walker - Great Guitars
DYEAR=1900
DGENRE=Blues
TTITLE0=Love Down Dirty Blues
TTITLE1=First Degree
TTITLE2=Mile-hi Club
TTITLE3=Fix Our Love
TTITLE4=Every Girl I See
TTITLE5=Cold And Evil Night
TTITLE6=Hop On It
TTITLE7=Nighttime
TTITLE8=Sugar
TTITLE9=In God's Hands
TTITLE10=High Blood Pressure
EXTD=
EXTT0=
EXTT1=
EXTT2=
EXTT3=
EXTT4=
EXTT5=
EXTT6=
EXTT7=
EXTT8=
EXTT9=
EXTT10=
PLAYORDER=
